Coordinates
version=1
nRows=8
nColumns=36
inDegrees=yes

Units are S.I. units (second, meters, Newtons, ...)
If the header above contains a line with 'inDegrees', this indicates whether rotational values are in degrees (yes) or radians (no).

endheader
time	pelvis_tilt	pelvis_list	pelvis_rotation	pelvis_tx	pelvis_ty	pelvis_tz	hip_flexion_r	hip_adduction_r	hip_rotation_r	knee_angle_r	knee_angle_r_beta	ankle_angle_r	subtalar_angle_r	mtp_angle_r	hip_flexion_l	hip_adduction_l	hip_rotation_l	knee_angle_l	knee_angle_l_beta	ankle_angle_l	subtalar_angle_l	mtp_angle_l	lumbar_extension	lumbar_bending	lumbar_rotation	arm_flex_r	arm_add_r	arm_rot_r	elbow_flex_r	pro_sup_r	arm_flex_l	arm_add_l	arm_rot_l	elbow_flex_l	pro_sup_l
     12.23000000	     -9.14123282	      2.93607777	     -2.54803929	     -0.50890518	      0.66355435	     -0.62242153	     88.66922546	      1.67492910	      4.03176908	    100.08474991	      1.74680842	     24.24188668	    -13.70460345	     -7.49999987	     86.93794716	     -1.26378195	     -4.99249244	     98.46228939	      1.71849114	     25.57836949	     -8.58216311	     -7.49999987	    -40.14770993	     -3.95897667	     -1.99165822	      6.34459398	    -22.63651569	      1.49726894	     90.72494892	    105.62293794	      2.86097808	    -15.20282795	     -4.06771815	     94.72361853	     93.00557817
     12.24000000	     -8.54069455	      2.94469422	     -2.52174990	     -0.51194646	      0.65786226	     -0.62251614	     88.97660918	      1.58799321	      4.00363453	    100.86217379	      1.76037702	     24.19184714	    -13.71717324	     -7.49999987	     87.20730149	     -1.29489694	     -5.01561296	     99.22250739	      1.73175945	     25.52721985	     -8.60627940	     -7.49999987	    -40.33982086	     -3.99603557	     -2.02503533	      6.33979577	    -22.75357405	      1.47525491	     90.90130719	    105.60261548	      2.95801028	    -15.22079406	     -4.18698367	     94.84469770	     92.97139050
     12.25000000	     -7.95716138	      2.94369077	     -2.50194870	     -0.51516315	      0.65233273	     -0.62260986	     89.27383873	      1.53488472	      3.99637426	    101.56761041	      1.77268922	     24.14148587	    -13.73277728	     -7.49999987	     87.49098637	     -1.35340978	     -5.05424095	     99.92419526	      1.74400621	     25.47176900	     -8.62807941	     -7.49999987	    -40.51435466	     -4.02385196	     -2.04506325	      6.40582205	    -22.84243775	      1.44674939	     91.11713314	    105.59691208	      3.07383783	    -15.25448344	     -4.28213296	     94.99748027	     92.95577545
     12.26000000	     -7.31308898	      2.95788473	     -2.46921589	     -0.51822666	      0.64682008	     -0.62296640	     89.52437488	      1.43127867	      4.02560018	    102.32369248	      1.78588534	     23.96888118	    -13.59389966	     -7.49999987	     87.71529143	     -1.39370923	     -5.13086308	    100.64626432	      1.75660869	     25.26010105	     -8.59548744	     -7.49999987	    -40.82714318	     -4.00233077	     -2.12262296	      6.09377240	    -23.06980770	      1.39366344	     92.17927412	    105.56932158	      2.80726080	    -15.19083153	     -4.59220451	     95.76133206	     92.85341114
     12.27000000	     -6.70189916	      3.01027850	     -2.38816454	     -0.52134774	      0.64160196	     -0.62359742	     89.77580383	      1.24482030	      4.09477561	    103.02084503	      1.79805294	     23.91910222	    -13.54651814	     -7.49999987	     87.92079522	     -1.31717831	     -5.23486378	    101.27173209	      1.76752516	     25.12487862	     -8.65917710	     -7.49999987	    -40.97639727	     -3.96185532	     -2.21639120	      5.96692065	    -23.16924066	      1.30145765	     92.70543459	    105.52785273	      2.84194009	    -15.00916319	     -4.90104535	     95.93774767	     92.69631772
     12.28000000	     -6.11475001	      3.02394744	     -2.36640712	     -0.52458770	      0.63662288	     -0.62393521	     90.00647313	      1.16226231	      4.10633871	    103.62444732	      1.80858779	     23.89924532	    -13.57945540	     -7.49999987	     88.12785800	     -1.33666232	     -5.28893937	    101.86857987	      1.77794212	     25.07833096	     -8.70037307	     -7.49999987	    -41.03447575	     -3.98344324	     -2.28387680	      6.00418425	    -23.17769916	      1.28122570	     92.80782178	    105.52405365	      3.00162401	    -14.94738863	     -4.98720036	     95.94614902	     92.66991298
     12.29000000	     -5.39934943	      3.10797309	     -2.36448611	     -0.52775771	      0.63182540	     -0.62421187	     90.14327665	      1.04440676	      4.16784484	    104.29057544	      1.82021392	     23.77503140	    -13.49748160	     -7.49999987	     88.18643812	     -1.35814222	     -5.43409631	    102.45741512	      1.78821924	     24.88309763	     -8.72253595	     -7.49999987	    -41.22835931	     -4.07040379	     -2.35906762	      5.70954382	    -23.24499809	      1.23161293	     93.31343891	    105.51925170	      2.89338436	    -14.82481720	     -5.30540580	     96.11939169	     92.59884278
     12.30000000	     -4.75830917	      3.11238586	     -2.33175316	     -0.53112097	      0.62724162	     -0.62439372	     90.29273411	      0.93104075	      4.15240464	    104.81991011	      1.82945255	     23.71358274	    -13.49224074	     -7.49999987	     88.31318648	     -1.37957659	     -5.46754399	    102.98841233	      1.79748689	     24.81514723	     -8.75778328	     -7.49999987	    -41.24730728	     -4.13197938	     -2.37929613	      5.68235967	    -23.12925589	      1.24164539	     93.45635557	    105.51884054	      2.98677064	    -14.78588774	     -5.38435862	     96.20155181	     92.58180083
